<?xml version="1.0" encoding="UTF-8" standalone="no"?><!DOCTYPE svg PUBLIC "-//W3C//DTD SVG 1.1//EN" "http://www.w3.org/Graphics/SVG/1.1/DTD/svg11.dtd"><svg width="100%" height="100%" viewBox="0 0 38 15" version="1.1" xmlns="http://www.w3.org/2000/svg" xmlns:xlink="http://www.w3.org/1999/xlink" xml:space="preserve" style="fill-rule:evenodd;clip-rule:evenodd;stroke-linejoin:round;stroke-miterlimit:1.41421;"><g id="battery"><path id="battery-outline" d="M2.496,0.048l29.57,0c1.258,0 2.279,0.983 2.279,2.198l0,9.522c0,1.218 -1.02,2.197 -2.279,2.197l-29.57,0c-1.258,0 -2.279,-0.984 -2.279,-2.197l0,-9.522c0,-1.22 1.02,-2.198 2.279,-2.198m0,0.733c-0.842,0 -1.521,0.652 -1.521,1.465l0,9.522c0,0.809 0.681,1.465 1.521,1.465l29.57,0c0.842,0 1.521,-0.654 1.521,-1.465l0,-9.522c0,-0.809 -0.681,-1.465 -1.521,-1.465l-29.57,0Z" style="fill-rule:nonzero;"/><path id="battery-fill-1" d="M2.897,1.513l1.99,0c0.698,0 1.264,0.566 1.264,1.264l0,8.46c0,0.698 -0.566,1.264 -1.264,1.264l-1.99,0c-0.698,0 -1.264,-0.566 -1.264,-1.264l0,-8.46c0,-0.698 0.566,-1.264 1.264,-1.264" style="fill-rule:nonzero;"/><path id="battery-fill-2" d="M2.897,1.513l15.269,0c0.698,0 1.264,0.566 1.264,1.264l0,8.46c0,0.698 -0.566,1.264 -1.264,1.264l-15.269,0c-0.698,0 -1.264,-0.566 -1.264,-1.264l0,-8.46c0,-0.698 0.566,-1.264 1.264,-1.264" style="fill-rule:nonzero;"/><path id="battery-fill-3" d="M2.897,1.513l28.7,0c0.698,0 1.264,0.566 1.264,1.264l0,8.46c0,0.698 -0.566,1.264 -1.264,1.264l-28.7,0c-0.698,0 -1.264,-0.566 -1.264,-1.264l0,-8.46c0,-0.698 0.566,-1.264 1.264,-1.264" style="fill-rule:nonzero;"/><path id="battery-pin" d="M37.101,7.01c0,1.292 -0.923,2.36 -2.124,2.538l0,-5.076c1.201,0.178 2.124,1.246 2.124,2.538" style="fill-rule:nonzero;"/></g></svg>