<svg id="SvgjsSvg1011" xmlns="http://www.w3.org/2000/svg" version="1.1" xmlns:xlink="http://www.w3.org/1999/xlink" xmlns:svgjs="http://svgjs.com/svgjs" width="33" height="26" viewBox="0 0 33 26"><title>Forma 1</title><desc>Created with Avocode.</desc><defs id="SvgjsDefs1012"></defs><path id="SvgjsPath1013" d="M802.167 840.014C802.5840000000001 840.3100000000001 803.8430000000001 841.187 805.942 842.646C808.041 844.1039999999999 809.65 845.228 810.767 846.015C810.8900000000001 846.102 811.1510000000001 846.289 811.5490000000001 846.578C811.9480000000001 846.8679999999999 812.2800000000001 847.102 812.5440000000001 847.281C812.8080000000001 847.459 813.1270000000001 847.659 813.5010000000001 847.88C813.8760000000001 848.102 814.229 848.268 814.5600000000001 848.379C814.892 848.49 815.1990000000001 848.5450000000001 815.4810000000001 848.5450000000001H815.5000000000001H815.5180000000001C815.8010000000002 848.5450000000001 816.1080000000002 848.4900000000001 816.4390000000002 848.379C816.7700000000002 848.268 817.1240000000001 848.102 817.4980000000002 847.88C817.8720000000002 847.659 818.1910000000001 847.459 818.4550000000002 847.281C818.7200000000001 847.102 819.0510000000002 846.8679999999999 819.4500000000002 846.578C819.8490000000002 846.289 820.1100000000001 846.102 820.2330000000002 846.015C821.3620000000002 845.227 824.2350000000001 843.227 828.8510000000002 840.014C829.7470000000002 839.386 830.4960000000002 838.629 831.0970000000002 837.743C831.6990000000002 836.8570000000001 832.0000000000002 835.927 832.0000000000002 834.955C832.0000000000002 834.142 831.7080000000002 833.446 831.1250000000002 832.868C830.5420000000003 832.2890000000001 829.8510000000002 832 829.0530000000002 832H801.9460000000003C801.0010000000002 832 800.2730000000003 832.32 799.7640000000002 832.96C799.2540000000002 833.6 799.0000000000002 834.4010000000001 799.0000000000002 835.361C799.0000000000002 836.136 799.3370000000002 836.977 800.0120000000002 837.881C800.6870000000001 838.786 801.4060000000002 839.497 802.1670000000001 840.014ZM830.158 841.99C826.131 844.723 823.0740000000001 846.846 820.987 848.361C820.288 848.878 819.7199999999999 849.281 819.284 849.5699999999999C818.848 849.8599999999999 818.268 850.155 817.544 850.4559999999999C816.8199999999999 850.7579999999999 816.145 850.9089999999999 815.518 850.9089999999999H815.5H815.481C814.855 850.9089999999999 814.18 850.7579999999999 813.456 850.4559999999999C812.731 850.1549999999999 812.1510000000001 849.8599999999999 811.715 849.5699999999999C811.2800000000001 849.281 810.712 848.8779999999999 810.0120000000001 848.361C808.354 847.1419999999999 805.3040000000001 845.018 800.86 841.99C800.16 841.522 799.54 840.987 799 840.383V855.0450000000001C799 855.8580000000001 799.288 856.5530000000001 799.865 857.1320000000001C800.442 857.711 801.136 858.0000000000001 801.946 858.0000000000001H829.053C829.864 858.0000000000001 830.557 857.7110000000001 831.134 857.1320000000001C831.711 856.5530000000001 832 855.8580000000001 832 855.0450000000001V840.383C831.472 840.974 830.858 841.51 830.158 841.99Z " fill="#ffffff" fill-opacity="1" transform="matrix(1,0,0,1,-799,-832)"></path></svg>