<svg id="SvgjsSvg1008" xmlns="http://www.w3.org/2000/svg" version="1.1" xmlns:xlink="http://www.w3.org/1999/xlink" xmlns:svgjs="http://svgjs.com/svgjs" width="18" height="36" viewBox="0 0 18 36"><title>Forma 1</title><desc>Created with Avocode.</desc><defs id="SvgjsDefs1009"></defs><path id="SvgjsPath1010" d="M810.079 723.972C810.079 724.88 810.079 728.929 810.079 728.929H806.404V734.99H810.079V753H817.627V734.99H822.692C822.692 734.99 823.166 732.0840000000001 823.397 728.9060000000001C822.7370000000001 728.9060000000001 817.6560000000001 728.9060000000001 817.6560000000001 728.9060000000001C817.6560000000001 728.9060000000001 817.6560000000001 725.3800000000001 817.6560000000001 724.7620000000001C817.6560000000001 724.143 818.4780000000001 723.3100000000001 819.292 723.3100000000001C820.104 723.3100000000001 821.817 723.3100000000001 823.404 723.3100000000001C823.404 722.485 823.404 719.634 823.404 717.0000000000001C821.286 717.0000000000001 818.875 717.0000000000001 817.813 717.0000000000001C809.893 717.0000000000001 810.079 723.0670000000001 810.079 723.9720000000001Z " fill="#ffffff" fill-opacity="1" transform="matrix(1,0,0,1,-806,-717)"></path></svg>