<svg id="SvgjsSvg1000" xmlns="http://www.w3.org/2000/svg" version="1.1" xmlns:xlink="http://www.w3.org/1999/xlink" xmlns:svgjs="http://svgjs.com/svgjs" width="36" height="30" viewBox="0 0 36 30"><title>Forma 1</title><desc>Created with Avocode.</desc><defs id="SvgjsDefs1001"></defs><path id="SvgjsPath1007" d="M833 613.551C831.675 614.153 830.252 614.561 828.758 614.744C830.283 613.806 831.4540000000001 612.322 832.005 610.554C830.578 611.422 828.997 612.052 827.3149999999999 612.391C825.968 610.92 824.0479999999999 610 821.924 610C817.845 610 814.538 613.391 814.538 617.573C814.538 618.167 814.6030000000001 618.745 814.729 619.299C808.591 618.983 803.149 615.968 799.5060000000001 611.386C798.8700000000001 612.505 798.5060000000001 613.8059999999999 798.5060000000001 615.194C798.5060000000001 617.8209999999999 799.8100000000001 620.139 801.792 621.497C800.581 621.458 799.442 621.117 798.447 620.55C798.446 620.582 798.446 620.6129999999999 798.446 620.645C798.446 624.3149999999999 800.9920000000001 627.376 804.37 628.072C803.751 628.245 803.098 628.337 802.425 628.337C801.949 628.337 801.486 628.29 801.035 628.201C801.975 631.21 804.702 633.4 807.934 633.461C805.4069999999999 635.492 802.222 636.703 798.762 636.703C798.165 636.703 797.578 636.667 797 636.597C800.268 638.746 804.15 640 808.322 640C821.906 640 829.335 628.46 829.335 618.451C829.335 618.123 829.3280000000001 617.796 829.3140000000001 617.472C830.758 616.404 832.0100000000001 615.0699999999999 833.0000000000001 613.5509999999999Z " fill="#ffffff" fill-opacity="1" transform="matrix(1,0,0,1,-797,-610)"></path></svg>