<?xml version="1.0" encoding="UTF-8" standalone="no"?><!DOCTYPE svg PUBLIC "-//W3C//DTD SVG 1.1//EN" "http://www.w3.org/Graphics/SVG/1.1/DTD/svg11.dtd"><svg width="100%" height="100%" viewBox="0 0 57 11" version="1.1" xmlns="http://www.w3.org/2000/svg" xmlns:xlink="http://www.w3.org/1999/xlink" xml:space="preserve" style="fill-rule:evenodd;clip-rule:evenodd;stroke-linejoin:round;stroke-miterlimit:1.41421;"><g id="signal"><g id="signal-1"><circle id="signal-fill-1" cx="4.994" cy="5.086" r="4.591" style="fill:#fff;"/><path id="signal-outline-1" d="M5.057,0.214c0.186,0.003 0.372,0.015 0.557,0.038c0.497,0.063 0.985,0.204 1.439,0.417c0.425,0.199 0.822,0.46 1.173,0.772c0.483,0.428 0.88,0.952 1.16,1.533c0.191,0.396 0.327,0.818 0.405,1.25c0.091,0.509 0.1,1.032 0.029,1.543c-0.07,0.496 -0.217,0.98 -0.434,1.431c-0.255,0.529 -0.606,1.01 -1.031,1.415c-0.44,0.419 -0.957,0.756 -1.52,0.986c-0.583,0.238 -1.211,0.36 -1.841,0.36c-0.63,0 -1.258,-0.122 -1.842,-0.36c-0.562,-0.23 -1.079,-0.567 -1.519,-0.986c-0.411,-0.391 -0.753,-0.854 -1.005,-1.362c-0.223,-0.447 -0.375,-0.929 -0.451,-1.423c-0.075,-0.491 -0.075,-0.993 0,-1.483c0.07,-0.455 0.205,-0.9 0.399,-1.317c0.298,-0.638 0.736,-1.209 1.274,-1.664c0.329,-0.278 0.695,-0.512 1.085,-0.695c0.436,-0.204 0.902,-0.342 1.378,-0.409c0.205,-0.028 0.411,-0.042 0.618,-0.046c0.063,-0.001 0.063,-0.001 0.126,0Zm-0.119,0.564c-0.165,0.003 -0.329,0.013 -0.493,0.034c-0.439,0.056 -0.87,0.18 -1.271,0.368c-0.345,0.161 -0.669,0.369 -0.96,0.615c-0.476,0.402 -0.863,0.907 -1.126,1.471c-0.173,0.369 -0.292,0.762 -0.353,1.164c-0.067,0.434 -0.067,0.878 0,1.312c0.067,0.437 0.201,0.863 0.398,1.258c0.223,0.449 0.526,0.859 0.889,1.205c0.389,0.37 0.846,0.668 1.344,0.871c0.516,0.211 1.071,0.319 1.628,0.319c0.557,0 1.112,-0.108 1.628,-0.319c0.497,-0.203 0.955,-0.501 1.344,-0.871c0.376,-0.358 0.686,-0.784 0.912,-1.252c0.192,-0.398 0.322,-0.826 0.383,-1.264c0.063,-0.453 0.055,-0.915 -0.026,-1.365c-0.068,-0.383 -0.189,-0.755 -0.357,-1.105c-0.263,-0.545 -0.642,-1.033 -1.104,-1.424c-0.292,-0.246 -0.615,-0.453 -0.96,-0.615c-0.401,-0.188 -0.832,-0.312 -1.271,-0.368c-0.164,-0.021 -0.328,-0.031 -0.493,-0.034c-0.056,-0.001 -0.056,-0.001 -0.112,0Z" style="fill:#fff;fill-rule:nonzero;"/></g><g id="signal-2"><circle id="signal-fill-2" cx="16.69" cy="5.086" r="4.591" style="fill:#fff;"/><path id="signal-outline-2" d="M16.753,0.214c0.186,0.003 0.372,0.015 0.557,0.038c0.497,0.063 0.985,0.204 1.439,0.417c0.426,0.199 0.822,0.46 1.174,0.772c0.482,0.428 0.879,0.952 1.159,1.533c0.191,0.396 0.328,0.818 0.405,1.25c0.091,0.509 0.1,1.032 0.029,1.543c-0.07,0.496 -0.217,0.98 -0.434,1.431c-0.254,0.529 -0.606,1.01 -1.03,1.415c-0.44,0.419 -0.958,0.756 -1.52,0.986c-0.584,0.238 -1.212,0.36 -1.842,0.36c-0.63,0 -1.258,-0.122 -1.841,-0.36c-0.563,-0.23 -1.08,-0.567 -1.52,-0.986c-0.411,-0.391 -0.753,-0.854 -1.005,-1.362c-0.222,-0.447 -0.375,-0.929 -0.451,-1.423c-0.075,-0.491 -0.075,-0.993 0,-1.483c0.07,-0.455 0.205,-0.9 0.4,-1.317c0.298,-0.638 0.735,-1.209 1.273,-1.664c0.329,-0.278 0.695,-0.512 1.085,-0.695c0.436,-0.204 0.902,-0.342 1.378,-0.409c0.205,-0.028 0.411,-0.042 0.618,-0.046c0.063,-0.001 0.063,-0.001 0.126,0Zm-0.119,0.564c-0.165,0.003 -0.329,0.013 -0.493,0.034c-0.439,0.056 -0.87,0.18 -1.271,0.368c-0.345,0.161 -0.668,0.369 -0.96,0.615c-0.475,0.402 -0.863,0.907 -1.126,1.471c-0.172,0.369 -0.291,0.762 -0.353,1.164c-0.066,0.434 -0.067,0.878 0,1.312c0.067,0.437 0.202,0.863 0.398,1.258c0.223,0.449 0.526,0.859 0.889,1.205c0.389,0.37 0.847,0.668 1.344,0.871c0.516,0.211 1.071,0.319 1.628,0.319c0.557,0 1.112,-0.108 1.628,-0.319c0.498,-0.203 0.955,-0.501 1.344,-0.871c0.376,-0.358 0.687,-0.784 0.912,-1.252c0.192,-0.398 0.322,-0.826 0.383,-1.264c0.063,-0.453 0.055,-0.915 -0.025,-1.365c-0.069,-0.383 -0.189,-0.755 -0.358,-1.105c-0.263,-0.545 -0.642,-1.033 -1.104,-1.424c-0.291,-0.246 -0.615,-0.453 -0.96,-0.615c-0.401,-0.188 -0.832,-0.312 -1.271,-0.368c-0.164,-0.021 -0.328,-0.031 -0.493,-0.034c-0.056,-0.001 -0.056,-0.001 -0.112,0Z" style="fill:#fff;fill-rule:nonzero;"/></g><g id="signal-3"><circle id="signal-fill-3" cx="28.386" cy="5.086" r="4.591" style="fill:#fff;"/><path id="signal-outline-3" d="M28.449,0.214c0.187,0.003 0.372,0.015 0.557,0.038c0.498,0.063 0.985,0.204 1.439,0.417c0.426,0.199 0.822,0.46 1.174,0.772c0.482,0.428 0.879,0.952 1.159,1.533c0.191,0.396 0.328,0.818 0.405,1.25c0.091,0.509 0.101,1.032 0.029,1.543c-0.069,0.496 -0.216,0.98 -0.434,1.431c-0.254,0.529 -0.605,1.01 -1.03,1.415c-0.44,0.419 -0.958,0.756 -1.52,0.986c-0.583,0.238 -1.212,0.36 -1.842,0.36c-0.629,0 -1.258,-0.122 -1.841,-0.36c-0.563,-0.23 -1.08,-0.567 -1.52,-0.986c-0.41,-0.391 -0.752,-0.854 -1.005,-1.362c-0.222,-0.447 -0.375,-0.929 -0.45,-1.423c-0.076,-0.491 -0.076,-0.993 0,-1.483c0.069,-0.455 0.204,-0.9 0.399,-1.317c0.298,-0.638 0.736,-1.209 1.273,-1.664c0.33,-0.278 0.695,-0.512 1.085,-0.695c0.436,-0.204 0.902,-0.342 1.378,-0.409c0.206,-0.028 0.412,-0.042 0.619,-0.046c0.062,-0.001 0.062,-0.001 0.125,0Zm-0.118,0.564c-0.165,0.003 -0.33,0.013 -0.493,0.034c-0.44,0.056 -0.87,0.18 -1.271,0.368c-0.346,0.161 -0.669,0.369 -0.96,0.615c-0.476,0.402 -0.863,0.907 -1.127,1.471c-0.172,0.369 -0.291,0.762 -0.353,1.164c-0.066,0.434 -0.066,0.878 0,1.312c0.067,0.437 0.202,0.863 0.399,1.258c0.223,0.449 0.525,0.859 0.888,1.205c0.389,0.37 0.847,0.668 1.345,0.871c0.515,0.211 1.071,0.319 1.627,0.319c0.557,0 1.113,-0.108 1.628,-0.319c0.498,-0.203 0.956,-0.501 1.345,-0.871c0.375,-0.358 0.686,-0.784 0.911,-1.252c0.192,-0.398 0.322,-0.826 0.383,-1.264c0.064,-0.453 0.055,-0.915 -0.025,-1.365c-0.068,-0.383 -0.189,-0.755 -0.358,-1.105c-0.263,-0.545 -0.642,-1.033 -1.104,-1.424c-0.291,-0.246 -0.615,-0.453 -0.96,-0.615c-0.401,-0.188 -0.832,-0.312 -1.271,-0.368c-0.164,-0.021 -0.328,-0.031 -0.493,-0.034c-0.056,-0.001 -0.056,-0.001 -0.111,0Z" style="fill:#fff;fill-rule:nonzero;"/></g><g id="signal-4"><circle id="signal-fill-4" cx="40.083" cy="5.086" r="4.591" style="fill:#fff;"/><path id="signal-outline-4" d="M40.146,0.214c0.186,0.003 0.372,0.015 0.557,0.038c0.497,0.063 0.985,0.204 1.439,0.417c0.425,0.199 0.821,0.46 1.173,0.772c0.483,0.428 0.879,0.952 1.16,1.533c0.191,0.396 0.327,0.818 0.405,1.25c0.09,0.509 0.1,1.032 0.028,1.543c-0.069,0.496 -0.216,0.98 -0.433,1.431c-0.255,0.529 -0.606,1.01 -1.031,1.415c-0.44,0.419 -0.957,0.756 -1.52,0.986c-0.583,0.238 -1.211,0.36 -1.841,0.36c-0.63,0 -1.259,-0.122 -1.842,-0.36c-0.562,-0.23 -1.08,-0.567 -1.52,-0.986c-0.41,-0.391 -0.752,-0.854 -1.004,-1.362c-0.223,-0.447 -0.375,-0.929 -0.451,-1.423c-0.075,-0.491 -0.075,-0.993 0,-1.483c0.069,-0.455 0.204,-0.9 0.399,-1.317c0.298,-0.638 0.736,-1.209 1.274,-1.664c0.329,-0.278 0.694,-0.512 1.085,-0.695c0.435,-0.204 0.902,-0.342 1.378,-0.409c0.205,-0.028 0.411,-0.042 0.618,-0.046c0.063,-0.001 0.062,-0.001 0.126,0Zm-0.119,0.564c-0.165,0.003 -0.329,0.013 -0.493,0.034c-0.439,0.056 -0.87,0.18 -1.271,0.368c-0.345,0.161 -0.669,0.369 -0.96,0.615c-0.476,0.402 -0.863,0.907 -1.127,1.471c-0.172,0.369 -0.291,0.762 -0.352,1.164c-0.067,0.434 -0.067,0.878 0,1.312c0.066,0.437 0.201,0.863 0.398,1.258c0.223,0.449 0.525,0.859 0.888,1.205c0.39,0.37 0.847,0.668 1.345,0.871c0.515,0.211 1.071,0.319 1.628,0.319c0.557,0 1.112,-0.108 1.628,-0.319c0.497,-0.203 0.955,-0.501 1.344,-0.871c0.375,-0.358 0.686,-0.784 0.911,-1.252c0.192,-0.398 0.322,-0.826 0.384,-1.264c0.063,-0.453 0.055,-0.915 -0.026,-1.365c-0.068,-0.383 -0.189,-0.755 -0.357,-1.105c-0.263,-0.545 -0.642,-1.033 -1.105,-1.424c-0.291,-0.246 -0.614,-0.453 -0.96,-0.615c-0.401,-0.188 -0.831,-0.312 -1.27,-0.368c-0.164,-0.021 -0.329,-0.031 -0.494,-0.034c-0.056,-0.001 -0.055,-0.001 -0.111,0Z" style="fill:#fff;fill-rule:nonzero;"/></g><g id="signal-5"><circle id="signal-fill-5" cx="51.779" cy="5.086" r="4.591" style="fill:#fff;"/><path id="signal-outline-5" d="M51.842,0.214c0.186,0.003 0.372,0.015 0.557,0.038c0.497,0.063 0.985,0.204 1.439,0.417c0.425,0.199 0.822,0.46 1.173,0.772c0.483,0.428 0.88,0.952 1.16,1.533c0.191,0.396 0.327,0.818 0.405,1.25c0.091,0.509 0.1,1.032 0.029,1.543c-0.07,0.496 -0.217,0.98 -0.434,1.431c-0.255,0.529 -0.606,1.01 -1.031,1.415c-0.439,0.419 -0.957,0.756 -1.52,0.986c-0.583,0.238 -1.211,0.36 -1.841,0.36c-0.63,0 -1.258,-0.122 -1.841,-0.36c-0.563,-0.23 -1.08,-0.567 -1.52,-0.986c-0.411,-0.391 -0.753,-0.854 -1.005,-1.362c-0.223,-0.447 -0.375,-0.929 -0.451,-1.423c-0.075,-0.491 -0.075,-0.993 0,-1.483c0.07,-0.455 0.205,-0.9 0.4,-1.317c0.297,-0.638 0.735,-1.209 1.273,-1.664c0.329,-0.278 0.695,-0.512 1.085,-0.695c0.436,-0.204 0.902,-0.342 1.378,-0.409c0.205,-0.028 0.411,-0.042 0.618,-0.046c0.063,-0.001 0.063,-0.001 0.126,0Zm-0.119,0.564c-0.165,0.003 -0.329,0.013 -0.493,0.034c-0.439,0.056 -0.87,0.18 -1.271,0.368c-0.345,0.161 -0.669,0.369 -0.96,0.615c-0.475,0.402 -0.863,0.907 -1.126,1.471c-0.172,0.369 -0.292,0.762 -0.353,1.164c-0.067,0.434 -0.067,0.878 0,1.312c0.067,0.437 0.201,0.863 0.398,1.258c0.223,0.449 0.526,0.859 0.889,1.205c0.389,0.37 0.846,0.668 1.344,0.871c0.516,0.211 1.071,0.319 1.628,0.319c0.557,0 1.112,-0.108 1.628,-0.319c0.497,-0.203 0.955,-0.501 1.344,-0.871c0.376,-0.358 0.687,-0.784 0.912,-1.252c0.192,-0.398 0.322,-0.826 0.383,-1.264c0.063,-0.453 0.055,-0.915 -0.026,-1.365c-0.068,-0.383 -0.189,-0.755 -0.357,-1.105c-0.263,-0.545 -0.642,-1.033 -1.104,-1.424c-0.292,-0.246 -0.615,-0.453 -0.96,-0.615c-0.401,-0.188 -0.832,-0.312 -1.271,-0.368c-0.164,-0.021 -0.328,-0.031 -0.493,-0.034c-0.056,-0.001 -0.056,-0.001 -0.112,0Z" style="fill:#fff;fill-rule:nonzero;"/></g></g></svg>
