<?xml version="1.0" encoding="UTF-8" standalone="no"?><!DOCTYPE svg PUBLIC "-//W3C//DTD SVG 1.1//EN" "http://www.w3.org/Graphics/SVG/1.1/DTD/svg11.dtd"><svg width="100%" height="100%" viewBox="0 0 25 18" version="1.1" xmlns="http://www.w3.org/2000/svg" xmlns:xlink="http://www.w3.org/1999/xlink" xml:space="preserve" style="fill-rule:evenodd;clip-rule:evenodd;stroke-linejoin:round;stroke-miterlimit:1.41421;"><g id="wifi"><path id="wifi-1" d="M16.297,13.315c-1.112,-0.902 -2.544,-1.528 -4.108,-1.528c-1.563,0 -2.993,0.625 -4.103,1.523l4.103,4.442l4.108,-4.437Z" style="fill-rule:nonzero;"/><path id="wifi-2" d="M12.189,8.966c2.333,0 4.463,0.828 6.106,2.192l1.998,-2.156c-2.175,-1.825 -5.002,-3.017 -8.104,-3.017c-3.096,0 -5.921,1.189 -8.093,3.007l1.995,2.16c1.642,-1.361 3.769,-2.186 6.098,-2.186" style="fill-rule:nonzero;"/><path id="wifi-3" d="M12.189,3.084c3.891,0 7.438,1.402 10.156,3.7l1.889,-2.038c-3.221,-2.734 -7.427,-4.646 -12.045,-4.646c-4.61,0 -8.81,1.907 -12.026,4.632l1.884,2.039c2.717,-2.29 6.257,-3.687 10.142,-3.687" style="fill-rule:nonzero;"/></g></svg>
